<svg width="10" height="18" viewBox="0 0 10 18" fill="none" xmlns="http://www.w3.org/2000/svg">
<path fill-rule="evenodd" clip-rule="evenodd" d="M9.70679 0.292786C9.89426 0.480314 9.99957 0.734622 9.99957 0.999786C9.99957 1.26495 9.89426 1.51926 9.70679 1.70679L2.41379 8.99979L9.70679 16.2928C9.88895 16.4814 9.98974 16.734 9.98746 16.9962C9.98518 17.2584 9.88001 17.5092 9.6946 17.6946C9.5092 17.88 9.25838 17.9852 8.99619 17.9875C8.73399 17.9897 8.48139 17.8889 8.29279 17.7068L0.292787 9.70679C0.105316 9.51926 0 9.26495 0 8.99979C0 8.73462 0.105316 8.48031 0.292787 8.29279L8.29279 0.292786C8.48031 0.105315 8.73462 0 8.99979 0C9.26495 0 9.51926 0.105315 9.70679 0.292786Z" fill="black"/>
</svg>
