<svg width="10" height="18" viewBox="0 0 10 18" fill="none" xmlns="http://www.w3.org/2000/svg">
<path fill-rule="evenodd" clip-rule="evenodd" d="M0.292787 0.292786C0.480314 0.105315 0.734622 0 0.999786 0C1.26495 0 1.51926 0.105315 1.70679 0.292786L9.70679 8.29279C9.89426 8.48031 9.99957 8.73462 9.99957 8.99979C9.99957 9.26495 9.89426 9.51926 9.70679 9.70679L1.70679 17.7068C1.51818 17.8889 1.26558 17.9897 1.00339 17.9875C0.741189 17.9852 0.490376 17.88 0.304968 17.6946C0.11956 17.5092 0.0143906 17.2584 0.0121121 16.9962C0.00983372 16.734 0.110629 16.4814 0.292787 16.2928L7.58579 8.99979L0.292787 1.70679C0.105316 1.51926 0 1.26495 0 0.999786C0 0.734622 0.105316 0.480314 0.292787 0.292786Z" fill="black"/>
</svg>
